<svg width="21" height="31" viewBox="0 0 21 31" fill="none" xmlns="http://www.w3.org/2000/svg">
<path fill-rule="evenodd" clip-rule="evenodd" d="M20.2148 17.6265L10.1084 30.6492V23.3376L20.2127 17.6275L20.2124 17.6278L20.2148 17.6265ZM18.247 19.3219L10.3682 23.7744V29.4742L18.247 19.3219Z" fill="white"/>
<path fill-rule="evenodd" clip-rule="evenodd" d="M10.1082 23.337L10.1078 23.3372L0.00244141 17.6265L10.1086 30.6488L10.1086 30.6487V23.3373L10.1082 23.337ZM1.96591 19.3216L9.84857 29.4789V23.7762L9.84522 23.7744L1.96591 19.3216Z" fill="white"/>
<path fill-rule="evenodd" clip-rule="evenodd" d="M9.84882 11.5859V2.0522L1.12352 15.3558L9.84882 11.5859ZM10.1086 0.707031L0.00195312 16.1169L10.1086 11.7501V0.707031Z" fill="white"/>
<path fill-rule="evenodd" clip-rule="evenodd" d="M0 16.1164L10.1085 21.7044V11.7495L0.00233421 16.1153L0.00225253 16.1154L0 16.1164ZM0.859921 16.0211L9.84868 20.9901V12.1381L0.859921 16.0211Z" fill="white"/>
<path fill-rule="evenodd" clip-rule="evenodd" d="M20.2146 16.1153L10.1084 11.7495V21.7044L20.2169 16.1164L20.2147 16.1154L20.2146 16.1153ZM10.3682 20.9901L19.357 16.0211L10.3682 12.138V20.9901Z" fill="white"/>
<path fill-rule="evenodd" clip-rule="evenodd" d="M10.1084 0.706543V11.7496L20.2151 16.1164L10.1084 0.706543ZM10.3683 11.5854L19.0936 15.3554L10.3683 2.05176V11.5854Z" fill="white"/>
</svg>
