<svg width="37" height="37" viewBox="0 0 37 37" fill="none" xmlns="http://www.w3.org/2000/svg">
<path d="M9.42858 13.2105C10.2925 13.2105 12.0923 13.2105 12.7042 13.2105C12.8482 13.2105 12.9562 13.2933 12.9922 13.4173C13.7481 15.3195 14.684 17.015 15.7639 18.5037C15.8719 18.6691 16.6567 18.7105 16.7287 18.5037C17.0887 17.5526 17.1318 15.1541 15.9079 13.4587C15.7999 13.2933 15.8359 13.0865 16.0159 13.0038C17.2758 12.3835 19.2066 12.9558 19.2066 12.9558C19.2066 12.9558 20.2583 13.3346 20.2583 13.6654L20.4074 18.5037C20.4074 18.7105 20.5874 18.8759 20.7674 18.8345C22.1353 18.5037 22.9632 16.1466 23.7551 13.6654C23.8631 13.376 24.115 13.1692 24.403 13.1692H27.4267C27.6787 13.1692 27.8587 13.4173 27.8227 13.7068C27.5347 15.4436 25.9869 17.718 25.1949 18.8345C24.907 19.2067 24.907 19.7856 25.1949 20.1578L27.8946 23.8795C28.0746 24.1277 27.9306 24.5412 27.6067 24.5412H24.187C23.8991 24.5412 23.6471 24.4171 23.4311 24.169L21.0194 21.8946C20.9114 21.7292 20.6594 21.6878 20.5514 21.8533C20.2634 22.2668 20.2634 22.763 20.1195 23.9622C20.0835 24.3344 19.7955 24.5825 19.4715 24.5825C18.4498 24.5143 17.1905 24.4908 16.2448 23.9622C14.9129 23.2179 11.4808 20.9898 9.42906 13.753C9.39307 13.4636 9.2126 13.2105 9.42858 13.2105Z" fill="black"/>
<rect x="1" y="1" width="34.45" height="34.45" rx="10" stroke="black" stroke-width="2"/>
</svg>
