<svg width="37" height="37" viewBox="0 0 37 37" fill="none" xmlns="http://www.w3.org/2000/svg">
<path d="M9.42858 13.2106C10.2925 13.2106 12.0923 13.2106 12.7042 13.2106C12.8482 13.2106 12.9562 13.2933 12.9922 13.4174C13.7481 15.3196 14.684 17.0151 15.7639 18.5037C15.8719 18.6692 16.6567 18.7105 16.7287 18.5037C17.0887 17.5526 17.1318 15.1542 15.9079 13.4587C15.7999 13.2933 15.8359 13.0866 16.0159 13.0038C17.2758 12.3836 19.2066 12.9559 19.2066 12.9559C19.2066 12.9559 20.2583 13.3347 20.2583 13.6655L20.4074 18.5037C20.4074 18.7105 20.5874 18.8759 20.7674 18.8346C22.1353 18.5037 22.9632 16.1466 23.7551 13.6655C23.8631 13.376 24.115 13.1693 24.403 13.1693H27.4267C27.6787 13.1693 27.8587 13.4174 27.8227 13.7068C27.5347 15.4437 25.9869 17.718 25.1949 18.8346C24.907 19.2067 24.907 19.7857 25.1949 20.1579L27.8946 23.8796C28.0746 24.1277 27.9306 24.5412 27.6067 24.5412H24.187C23.8991 24.5412 23.6471 24.4172 23.4311 24.1691L21.0194 21.8947C20.9114 21.7293 20.6594 21.6879 20.5514 21.8533C20.2634 22.2668 20.2634 22.7631 20.1195 23.9623C20.0835 24.3345 19.7955 24.5826 19.4715 24.5826C18.4498 24.5143 17.1905 24.4908 16.2448 23.9623C14.9129 23.218 11.4808 20.9898 9.42906 13.7531C9.39307 13.4636 9.2126 13.2106 9.42858 13.2106Z" fill="white"/>
<rect x="1" y="1" width="34.45" height="34.45" rx="10" stroke="white" stroke-width="2"/>
</svg>
