<svg width="100" height="193" fill="none" xmlns="http://www.w3.org/2000/svg"><path d="M73 .667C65.636.667 59.667 6.637 59.667 14c0 7.364 5.97 13.333 13.333 13.333 7.364 0 13.334-5.97 13.334-13.333C86.334 6.636 80.364.667 73 .667zM0 179.5l25.763 13.023L24.16 163.7 0 179.5zM95.5 122l2.349.857.082-.226.038-.237L95.5 122zM70.693 14.962C81.95 41.978 88.863 60.16 92.309 75.849c3.421 15.58 3.433 28.758.722 45.757l4.938.788c2.79-17.501 2.802-31.322-.777-47.618C93.638 58.59 86.551 40.021 75.308 13.04l-4.615 1.922zm22.459 106.181c-4.937 13.523-11.47 25.77-22.272 35.325-10.778 9.535-26.022 16.579-48.715 19.3l.596 4.965c23.474-2.816 39.739-10.175 51.433-20.52 11.67-10.325 18.572-23.435 23.655-37.356l-4.697-1.714z" fill="#fff"/></svg>